<?xml version="1.0" encoding="UTF-8" standalone="no"?>
<!DOCTYPE svg PUBLIC "-//W3C//DTD SVG 1.1//EN" "http://www.w3.org/Graphics/SVG/1.1/DTD/svg11.dtd">
<svg xmlns="http://www.w3.org/2000/svg" version="1.1" viewBox="0.00 0.00 512.00 512.00">
<path fill="#202833" d="
  M 196.46 433.54
  C 121.46 410.24 70.12 341.67 66.90 263.49
  C 63.20 173.94 129.14 91.90 216.75 74.98
  C 262.81 66.08 312.11 72.80 352.27 97.11
  C 428.66 143.36 463.57 233.69 433.40 319.10
  C 418.38 361.62 386.86 397.68 347.54 419.19
  C 300.75 444.79 247.64 449.44 196.46 433.54
  Z
  M 216.88 259.77
  Q 217.13 260.25 217.13 261.50
  Q 217.11 288.16 216.95 314.81
  Q 216.87 328.55 215.87 334.77
  C 210.87 365.86 190.05 383.62 163.44 396.84
  A 1.08 1.07 -35.3 0 0 163.14 398.56
  C 165.34 400.81 168.48 403.10 171.83 401.61
  C 206.26 386.31 228.97 359.05 228.99 320.09
  Q 229.02 246.19 228.99 172.52
  A 0.53 0.52 0.0 0 1 229.52 172.00
  L 282.64 172.00
  A 0.33 0.33 0.0 0 1 282.97 172.33
  C 283.22 218.82 282.26 265.28 282.04 311.76
  C 281.90 344.32 292.56 371.48 319.97 390.80
  C 322.55 392.62 337.81 402.21 343.31 402.23
  A 1.63 1.61 -63.4 0 0 344.30 401.89
  L 349.70 397.75
  A 0.56 0.55 -53.5 0 0 349.56 396.79
  C 316.88 384.39 295.32 355.75 295.10 320.49
  Q 294.92 290.59 295.02 259.74
  A 1.31 1.31 0.0 0 1 296.35 258.43
  L 338.38 258.82
  Q 339.89 258.84 339.90 260.34
  Q 340.18 289.58 339.87 317.68
  Q 339.73 330.36 341.03 336.24
  C 345.14 354.82 359.29 368.77 375.69 377.90
  Q 376.09 378.12 376.41 377.80
  Q 412.97 341.65 423.45 291.83
  C 435.87 232.81 414.58 167.44 368.16 129.33
  C 324.54 93.50 271.64 79.90 215.73 92.23
  C 179.68 100.19 146.71 121.78 123.06 149.75
  C 66.16 217.03 72.16 315.61 134.40 377.03
  A 0.85 0.84 -32.6 0 0 135.29 377.22
  Q 137.60 376.34 141.05 374.29
  C 159.19 363.48 172.99 344.12 172.25 322.45
  C 171.53 301.22 171.99 279.86 172.00 258.75
  A 0.68 0.67 0.4 0 1 172.69 258.08
  L 215.19 258.63
  A 2.17 1.82 74.0 0 1 216.88 259.77
  Z
  M 255.71 405.35
  C 254.05 404.50 251.99 371.75 251.84 368.00
  C 250.38 331.64 250.94 295.07 251.02 258.79
  A 0.84 0.84 0.0 0 0 250.17 257.95
  L 239.83 258.11
  A 1.88 1.88 0.0 0 0 237.98 259.99
  Q 237.97 292.17 238.22 323.44
  C 238.47 354.63 223.97 381.41 198.24 398.41
  Q 190.00 403.86 181.32 408.03
  A 0.57 0.56 46.8 0 0 181.29 409.03
  Q 190.85 414.39 200.99 417.50
  Q 254.90 434.00 309.02 418.05
  C 310.90 417.49 328.11 411.57 329.94 408.60
  Q 330.42 407.82 329.60 407.42
  C 323.69 404.55 317.51 401.50 312.34 397.84
  C 283.67 377.51 273.08 348.82 273.07 314.25
  Q 273.06 286.89 273.63 259.58
  A 1.47 1.46 1.8 0 0 272.22 258.09
  Q 267.03 257.89 262.25 258.21
  Q 260.23 258.34 260.22 260.50
  Q 259.92 304.72 259.96 348.94
  C 259.99 367.95 258.89 386.22 256.66 404.85
  A 0.66 0.65 17.0 0 1 255.71 405.35
  Z
  M 145.87 385.71
  C 146.63 387.46 149.57 389.78 151.25 390.67
  Q 151.73 390.92 152.23 390.72
  C 181.64 379.51 207.40 352.48 206.97 319.50
  Q 206.68 297.44 207.08 275.10
  A 1.96 1.95 -89.1 0 0 205.16 273.11
  L 194.56 272.95
  Q 194.01 272.94 194.01 273.50
  Q 193.98 293.28 193.92 313.05
  Q 193.87 327.21 192.86 332.99
  C 190.21 348.09 182.70 361.21 170.94 371.14
  C 164.35 376.70 155.40 382.80 146.68 384.23
  Q 145.33 384.45 145.87 385.71
  Z
  M 365.84 384.59
  C 341.49 376.59 322.29 357.07 318.51 331.47
  Q 317.74 326.19 317.47 311.51
  Q 317.15 293.54 318.03 274.94
  A 1.53 1.53 0.0 0 0 316.72 273.35
  C 314.45 273.01 305.02 271.53 305.01 275.57
  Q 304.95 296.52 305.02 317.46
  Q 305.05 327.69 306.39 333.78
  C 311.64 357.71 328.80 376.62 350.82 386.42
  Q 356.99 389.16 359.91 391.02
  Q 360.32 391.27 360.65 390.93
  L 366.04 385.37
  Q 366.56 384.83 365.84 384.59
  Z"
/>
<rect fill="#202833" x="169.00" y="172.00" width="46.00" height="70.00" rx="0.69"/>
<path fill="#202833" d="
  M 296.40 172.38
  A 0.37 0.37 0.0 0 1 296.77 172.00
  L 341.50 172.00
  A 0.50 0.50 0.0 0 1 342.00 172.50
  L 342.00 241.25
  A 0.75 0.75 0.0 0 1 341.25 242.00
  L 297.03 242.00
  A 0.65 0.64 -89.6 0 1 296.39 241.34
  Q 297.26 206.86 296.40 172.38
  Z"
/>
</svg>
